# xmcd
#
# Track frame offsets: 
#        150
#        5872
#        30528
#        57519
#        80858
#        103045
#        132725
#        150359
#        171130
#        191439
#
# Disc length: 2841 seconds
#
# Revision: 5
# Processed by: cddbd v1.5.2PL0 Copyright (c) Steve Scherf et al.
# Submitted via: ExactAudioCopy v1.0b5
#
DISCID=850b170a
DTITLE=Senor Coconut Y Su Conjunto - El Baile Aleman
DYEAR=2000
DGENRE=Electronic
TTITLE0=Introduccion
TTITLE1=Showroom Dummies
TTITLE2=Trans Europe Express
TTITLE3=The Robots
TTITLE4=Neon Lights
TTITLE5=Autobahn
TTITLE6=Homecomputer
TTITLE7=Tour De France
TTITLE8=The Man Machine
TTITLE9=Music Non Stop
EXTD=YEAR: 2000
EXTT0=
EXTT1=
EXTT2=
EXTT3=
EXTT4=
EXTT5=
EXTT6=
EXTT7=
EXTT8=
EXTT9=
PLAYORDER=
